<svg preserveAspectRatio="none" width="100%" height="100%" overflow="visible" style="display: block;" viewBox="0 0 1920 156" fill="none" xmlns="http://www.w3.org/2000/svg">
<path id="wave" d="M0 97.1566L80 89.0349C160 81.2169 320 64.5181 480 80.9892C640 97.1566 800 145.735 960 153.857C1120 161.675 1280 129.795 1440 117.423C1600 105.506 1760 113.096 1840 117.423L1920 121.446V0H1840C1760 0 1600 0 1440 0C1280 0 1120 0 960 0C800 0 640 0 480 0C320 0 160 0 80 0H0V97.1566Z" fill="var(--fill-0, #FDFDE1)"/>
</svg>
